# xmcd
#
# Track frame offsets: 
#        150
#        19502
#        43882
#        61204
#        91533
#        130153
#        165016
#
# Disc length: 2478 seconds
#
# Revision: 0
# Processed by: cddbd v1.5.2PL0 Copyright (c) Steve Scherf et al.
# Submitted via: ExactAudioCopy v0.99pb4
#
DISCID=4409ac07
DTITLE=John Lee Hooker - Live At Soledad Prison
DYEAR=1972
DGENRE=Blues
TTITLE0=Superlover
TTITLE1=I'm Your Crosscut Saw
TTITLE2=What's The Matter Baby
TTITLE3=Lucille
TTITLE4=Boogie Everywhere I Go
TTITLE5=Serve Me Right To Suffer
TTITLE6=Bang Bang Bang Bang
EXTD=
EXTT0=
EXTT1=
EXTT2=
EXTT3=
EXTT4=
EXTT5=
EXTT6=
PLAYORDER=
